<svg xmlns="http://www.w3.org/2000/svg" x="0px" y="0px" width="24" height="24" viewBox="0 0 256 256" fill="#ffffff"
     class="icono-red-social">
    <g fill="#ffffff" fill-rule="nonzero" stroke="none" stroke-width="1" stroke-linecap="butt" stroke-linejoin="miter"
       stroke-miterlimit="10" stroke-dasharray="" stroke-dashoffset="0" font-family="none"
       font-size="none" style="mix-blend-mode: normal">
        <g transform="scale(5.12,5.12)">
            <path d="M9,4c-2.75042,0 -5,2.24958 -5,5v32c0,2.75042 2.24958,5 5,5h15.40625v-14h-4.6875c-0.27537,0 -0.71875,-0.18928 -0.71875,-0.8125v-5.375c0,-0.59662 0.46002,-0.8125 0.71875,-0.8125h4.6875v-5.40625c0,-3.93557 2.76245,-7.3125 7.21875,-7.3125c1.97596,0 3.62891,0.18229 4.28125,0.28125c0.27567,0.04118 0.46875,0.28194 0.46875,0.5625v4.25c0,0.37892 -0.27208,0.5 -0.375,0.5c-0.41008,0 -2.12126,-0.1875 -3.125,-0.1875c-1.49488,0 -2.0625,0.62807 -2.0625,2.21875v5.09375h5.40625c0.4264,0 0.625,0.3983 0.625,0.8125l-0.59375,5.375c-0.0561,0.43297 -0.41766,0.8125 -0.8125,0.8125h-4.625v14h7.59375c2.75042,0 5,-2.24958 5,-5v-32c0,-2.75042 -2.24958,-5 -5,-5z"/>
        </g>
    </g>
</svg>
